<?xml version="1.0" encoding="UTF-8" standalone="no"?>
<!-- Created with Inkscape (http://www.inkscape.org/) -->
<svg xmlns:dc="http://purl.org/dc/elements/1.1/" xmlns:cc="http://creativecommons.org/ns#" xmlns:rdf="http://www.w3.org/1999/02/22-rdf-syntax-ns#" xmlns:svg="http://www.w3.org/2000/svg" xmlns="http://www.w3.org/2000/svg" xmlns:sodipodi="http://sodipodi.sourceforge.net/DTD/sodipodi-0.dtd" xmlns:inkscape="http://www.inkscape.org/namespaces/inkscape" width="79.375mm" height="79.376015mm" viewBox="0 0 79.375 79.376015" version="1.1" id="svg2536" inkscape:version="0.92.3 (2405546, 2018-03-11)" sodipodi:docname="B-symbol.svg">
  <defs id="defs2530"/>
  <sodipodi:namedview id="base" pagecolor="#ffffff" bordercolor="#666666" borderopacity="1.0" inkscape:pageopacity="0.0" inkscape:pageshadow="2" inkscape:zoom="0.7" inkscape:cx="102.96512" inkscape:cy="173.72704" inkscape:document-units="mm" inkscape:current-layer="layer1" showgrid="false" fit-margin-top="0" fit-margin-left="0" fit-margin-right="0" fit-margin-bottom="0" inkscape:window-width="1920" inkscape:window-height="991" inkscape:window-x="-10" inkscape:window-y="-10" inkscape:window-maximized="1"/>
  <metadata id="metadata2533">
    <rdf:RDF>
      <cc:Work rdf:about="">
        <dc:format>image/svg+xml</dc:format>
        <dc:type rdf:resource="http://purl.org/dc/dcmitype/StillImage"/>
        <dc:title/>
      </cc:Work>
    </rdf:RDF>
  </metadata>
  <g inkscape:label="Laag 1" inkscape:groupmode="layer" id="layer1" transform="translate(176.99841,-83.926212)">
    <g id="g1842" transform="matrix(0.90193883,0,0,-0.90193883,388.03513,303.00294)">
      <g transform="matrix(1.1024525,0,0,1.1024525,-539.19399,158.0349)" id="g1035">
        <path inkscape:connector-curvature="0" id="path1037" style="fill:#e6007e;fill-opacity:1;fill-rule:nonzero;stroke:none" d="m 0,0 c -0.008,-1.036 -0.786,-2.171 -2.12,-2.188 h -74.272 c -1.323,0.017 -2.104,1.16 -2.104,2.188 v 74.122 c 0.011,1.035 0.787,2.169 2.112,2.187 h 74.272 c 1.326,-0.018 2.104,-1.161 2.104,-2.187 z"/>
      </g>
      <g transform="matrix(1.1024525,0,0,1.1024525,-591.28487,204.23141)" id="g1047">
        <path inkscape:connector-curvature="0" id="path1049" style="fill:#ffffff;fill-opacity:1;fill-rule:nonzero;stroke:none" d="m 0,0 v 12.382 h 6.99 c 5.055,0 7.329,-2.359 7.329,-5.981 C 14.319,2.358 12.129,0 6.908,0 Z m 0,-22.067 v 14.149 h 7.244 c 5.223,0 7.834,-2.442 7.834,-7.158 0,-4.633 -2.781,-6.991 -7.918,-6.991 z M -11.539,-31.08 H 8.929 c 11.37,0 18.614,5.642 18.614,15.246 0,6.821 -4.211,10.781 -9.855,12.044 v 0.169 c 4.293,1.179 8.254,5.137 8.254,11.624 0,8.001 -6.147,13.391 -17.518,13.391 h -19.963 z"/>
      </g>
    </g>
  </g>
</svg>