<?xml version="1.0" encoding="UTF-8" standalone="no"?>
<!-- Created with Inkscape (http://www.inkscape.org/) -->
<svg xmlns:dc="http://purl.org/dc/elements/1.1/" xmlns:cc="http://creativecommons.org/ns#" xmlns:rdf="http://www.w3.org/1999/02/22-rdf-syntax-ns#" xmlns:svg="http://www.w3.org/2000/svg" xmlns="http://www.w3.org/2000/svg" xmlns:sodipodi="http://sodipodi.sourceforge.net/DTD/sodipodi-0.dtd" xmlns:inkscape="http://www.inkscape.org/namespaces/inkscape" id="svg4476" version="1.1" inkscape:version="0.48.2 r9819" width="107.65375" height="107.64375" xml:space="preserve" sodipodi:docname="Det Konservative Folkeparti Teillogo.svg"><metadata id="metadata4482"><rdf:RDF><cc:Work rdf:about=""><dc:format>image/svg+xml</dc:format><dc:type rdf:resource="http://purl.org/dc/dcmitype/StillImage"/><dc:title/></cc:Work></rdf:RDF></metadata><defs id="defs4480"><clipPath clipPathUnits="userSpaceOnUse" id="clipPath4490"><path d="m 0,121.108 248.202,0 L 248.202,0 0,0 0,121.108 z" id="path4492" inkscape:connector-curvature="0"/></clipPath></defs><sodipodi:namedview pagecolor="#ffffff" bordercolor="#666666" borderopacity="1" objecttolerance="10" gridtolerance="10" guidetolerance="10" inkscape:pageopacity="0" inkscape:pageshadow="2" inkscape:window-width="1435" inkscape:window-height="911" id="namedview4478" showgrid="false" inkscape:zoom="1.3891911" inkscape:cx="50.650255" inkscape:cy="31.951741" inkscape:window-x="1920" inkscape:window-y="0" inkscape:window-maximized="0" inkscape:current-layer="g4488" fit-margin-top="0" fit-margin-left="0" fit-margin-right="0" fit-margin-bottom="0"/><g id="g4484" inkscape:groupmode="layer" inkscape:label="Det Konservative Folkeparti Logo" transform="matrix(1.25,0,0,-1.25,-104.476,151.3845)"><g id="g4486"><g id="g4488" clip-path="url(#clipPath4490)"><g id="g4542" transform="translate(146.0083,56.9878)"><path d="M 0,0 C 0,-0.598 -0.266,-1.06 -1.332,-1.397 -3.457,-2.06 -8.371,-3.59 -17.074,-3.59 c -17.279,0 -23.925,6.648 -23.925,25.05 0,18.407 6.646,25.049 23.854,25.049 8.706,0 13.688,-1.659 15.813,-2.325 C -0.266,43.849 0,43.386 0,42.788 0,42.658 -0.068,42.453 -0.068,42.323 l -1.196,-6.178 c -0.068,-0.534 -0.461,-0.864 -1.131,-0.864 -0.13,0 -0.332,0.065 -0.531,0.065 -1.461,0.397 -6.775,1.86 -11.428,1.86 -10.627,0 -12.952,-4.715 -12.952,-15.746 0,-11.029 2.325,-15.681 12.952,-15.681 4.653,0 9.967,1.267 11.428,1.597 0.199,0.066 0.401,0.066 0.531,0.066 0.67,0 1.063,-0.332 1.131,-0.794 L -0.068,0.466 C -0.068,0.336 0,0.136 0,0" style="fill:#66c430;fill-opacity:1;fill-rule:nonzero;stroke:none" id="path4544" inkscape:connector-curvature="0"/></g><g id="g4546" transform="translate(161.6528,113.0806)"><path d="m 0,0 z m -50.796,-71.563 c -7.35,1.015 -12.612,2.929 -15.213,5.537 -2.605,2.601 -4.518,7.863 -5.535,15.21 -0.879,6.348 -0.879,12.652 -0.879,15.682 l 0,0.125 c 0,3.021 0,9.311 0.882,15.672 1.023,7.375 2.947,12.656 5.564,15.272 2.616,2.616 7.9,4.539 15.278,5.564 6.368,0.881 12.652,0.881 15.67,0.881 l 0.201,0 c 3.043,0 9.369,0 15.695,-0.873 7.311,-1.009 12.547,-2.911 15.139,-5.503 2.599,-2.596 4.512,-7.843 5.521,-15.175 0.877,-6.335 0.877,-12.663 0.877,-15.703 l 0,-0.318 c 0,-3.037 0,-9.361 -0.873,-15.692 -1.013,-7.328 -2.922,-12.574 -5.513,-15.166 -2.598,-2.598 -7.842,-4.504 -15.164,-5.519 -6.333,-0.873 -12.661,-0.873 -15.702,-0.873 l -0.263,0 c -3.029,0 -9.337,0 -15.685,0.879 m 32.441,78.672 c -5.624,0.764 -11.487,0.918 -16.473,0.918 l -0.201,0 c -3.143,0 -9.69,0 -16.445,-0.934 -8.732,-1.211 -14.954,-3.621 -18.498,-7.165 -3.544,-3.541 -5.954,-9.763 -7.163,-18.49 -0.937,-6.748 -0.937,-13.297 -0.937,-16.447 l 0,-0.125 c 0,-3.157 0,-9.724 0.932,-16.457 1.203,-8.701 3.604,-14.901 7.136,-18.433 3.531,-3.532 9.731,-5.931 18.432,-7.134 6.738,-0.934 13.305,-0.93 16.461,-0.93 l 0.285,0 c 5.021,0 10.916,0.159 16.57,0.934 7.303,1.004 14.201,3.043 18.264,7.107 4.076,4.073 6.113,10.999 7.117,18.326 0.771,5.634 0.926,11.508 0.926,16.508 l 0,0.359 c 0,5.303 -0.176,11.586 -1.074,17.526 C 5.928,-10.374 3.893,-3.889 0,0 -4.078,4.075 -11.016,6.11 -18.355,7.109" style="fill:#66c430;fill-opacity:1;fill-rule:nonzero;stroke:none" id="path4548" inkscape:connector-curvature="0"/></g></g></g></g></svg>