<?xml version="1.0" encoding="UTF-8" standalone="no"?>
<svg xmlns:dc="http://purl.org/dc/elements/1.1/" xmlns:cc="http://creativecommons.org/ns#" xmlns:rdf="http://www.w3.org/1999/02/22-rdf-syntax-ns#" xmlns:svg="http://www.w3.org/2000/svg" xmlns="http://www.w3.org/2000/svg" xmlns:sodipodi="http://sodipodi.sourceforge.net/DTD/sodipodi-0.dtd" xmlns:inkscape="http://www.inkscape.org/namespaces/inkscape" version="1.0" width="395.62094" height="395.48108" viewBox="0 0 3956.2094 3954.8108" preserveAspectRatio="xMidYMid meet" id="svg10" sodipodi:docname="LA_cirkel_blaa_pa_hvid.svg" inkscape:version="0.92.0 r15299">
  <metadata id="metadata16">
    <rdf:RDF>
      <cc:Work rdf:about="">
        <dc:format>image/svg+xml</dc:format>
        <dc:type rdf:resource="http://purl.org/dc/dcmitype/StillImage"/>
      </cc:Work>
    </rdf:RDF>
  </metadata>
  <defs id="defs14"/>
  <sodipodi:namedview pagecolor="#ffffff" bordercolor="#666666" borderopacity="1" objecttolerance="10" gridtolerance="10" guidetolerance="10" inkscape:pageopacity="0" inkscape:pageshadow="2" inkscape:window-width="1920" inkscape:window-height="1137" id="namedview12" showgrid="false" inkscape:zoom="0.39932318" inkscape:cx="714.79634" inkscape:cy="-29.0666" inkscape:window-x="-8" inkscape:window-y="-8" inkscape:window-maximized="1" inkscape:current-layer="svg10"/>
  <g id="layer101" style="fill:#122140;stroke:none" transform="translate(-974.13815,-974.13815)">
    <path d="m 2677,4915 c -127,-18 -288,-58 -407,-102 -52,-20 -99,-36 -105,-37 -130.1973,-56.32 -257.3803,-133.5001 -366,-211 -85.8017,-50.4535 -158.788,-123.3252 -220,-186 -93.8557,-83.5072 -172.6249,-184.8619 -237,-271 -65,-90 -129,-199 -182,-310 -33.9897,-66.5851 -57.5421,-130.9096 -80,-195 -30,-81 -75,-271 -91,-383 -31,-218 -12,-538 43,-755 11,-44 22,-87 23,-95 2,-8 4,-16 5,-17 22.5435,-78.3328 59.5637,-158.711 88,-219 67.4572,-161.5863 170.8224,-316.3371 270,-434 70,-87 210,-226 297,-296 79.3073,-83.9635 185.2563,-134.7101 283,-188 103.489,-65.9981 228.048,-104.8519 322,-143 8,-3 18,-7 23,-8 8.8269,-4.9253 18.3943,-7.7929 27,-10 8,-1 51,-12 95,-23 217,-55 537,-74 755,-43 168.1947,29.899 350.0654,68.762 498,135 115,45 278,137 390,218 103.54,67.8491 191.2986,157.1011 266,233 194.1573,200.44 346.3494,446.0118 435,685 125,324 156,744 81,1105 -28,137 -86,307 -149,440 -58.7603,141.1339 -142.7593,268.5707 -239,383 -88,109 -231,250 -342,336 -103.8638,88.8982 -233.5386,159.9233 -345,213 -203,95 -411,156 -625,183 -114,14 -393,11 -513,-5 z" id="path2" inkscape:connector-curvature="0" sodipodi:nodetypes="cccccccccccccccccccccccccccccccc"/>
  </g>
  <g id="layer102" style="fill:#ffffff;stroke:none" transform="translate(-974.13815,-974.13815)">
    <path d="m 2832,4728 c -218,-14 -444,-74 -635,-168 -717,-349 -1113,-1124 -977,-1913 96,-563 447,-1036 958,-1291 342,-172 735,-225 1112,-150 163,33 278,71 425,143 614,301 995,914 996,1601 0,373 -98,693 -312,1016 -102,154 -311,362 -469,467 -335,222 -706,322 -1098,295 z m -50,-1418 c 15,-41 31,-83 34,-92 5,-17 -8,-18 -190,-18 h -196 v -340 -340 h -110 -110 v 428 c 0,236 3,432 7,435 4,4 126,6 272,5 l 265,-3 z m 307,-2 25,-78 h 151 150 l 25,78 25,77 113,3 114,3 -8,-23 c -4,-13 -73,-207 -155,-433 l -147,-410 h -113 -113 l -153,425 c -84,234 -153,428 -153,433 0,4 48,6 107,5 l 107,-3 z" id="path5" inkscape:connector-curvature="0"/>
    <path d="m 3174,3068 c -4,-6 82,-297 89,-305 4,-3 89,275 91,295 1,14 -12,17 -87,17 -49,0 -91,-3 -93,-7 z" id="path7" inkscape:connector-curvature="0"/>
  </g>
</svg>