<?xml version="1.0" encoding="UTF-8"?>
<svg id="Layer_2" data-name="Layer 2" xmlns="http://www.w3.org/2000/svg" viewBox="0 0 285.25 285.26">
  <defs>
    <style>
      .cls-1 {
        fill: #fff;
      }

      .cls-2 {
        fill: #ff4056;
      }

      .cls-3 {
        fill: #0f3459;
      }
    </style>
  </defs>
  <g id="Laag_1" data-name="Laag 1">
    <g>
      <g>
        <path class="cls-1" d="m285.23,141.61c.01.34.01.68.01,1.03s0,.68-.01,1.03c0,2.35-.07,4.68-.21,6.99h-25.63c-.47,8.69-1.74,17.18-3.71,25.38-6.22,25.98-19.56,49.19-37.83,67.46-15.15,15.15-33.69,26.9-54.38,34.02-4.19,1.44-8.47,2.7-12.82,3.74-.36.1-.7.19-1.06.26-2.3.54-4.62,1.03-6.96,1.46-4.21.76-8.47,1.34-12.81,1.71-2.7-.23-5.36-.54-8.02-.93,4.34-.63,8.62-1.47,12.81-2.5,2.71-.64,5.38-1.37,8.02-2.18.43-.11.86-.26,1.27-.39,3.94-1.24,7.79-2.64,11.55-4.21,17.47-7.22,33.2-17.82,46.36-30.98,18.69-18.69,32.23-42.54,38.26-69.23,1.74-7.66,2.85-15.55,3.3-23.61h-25.65c.16-2.65.23-5.32.23-8.02,0-1.61-.03-3.21-.09-4.81.04-1.07.07-2.14.07-3.21h25.43c-.44-8.06-1.55-15.96-3.3-23.61-6.03-26.69-19.57-50.54-38.26-69.23-10.19-10.2-21.9-18.86-34.79-25.59,3.38-1.07,6.82-2.01,10.3-2.82,15.15,7.06,28.84,16.73,40.53,28.42,18.27,18.27,31.61,41.48,37.83,67.46,1.97,8.2,3.24,16.69,3.71,25.38h25.63c.14,2.31.21,4.64.21,6.99Z"/>
        <path class="cls-1" d="m155.45.58c2.7.23,5.36.54,8.02.93-4.34.63-8.62,1.47-12.82,2.5-2.71.64-5.38,1.37-8.02,2.18-.43.11-.84.26-1.26.39-3.94,1.24-7.79,2.64-11.55,4.21-17.49,7.22-33.21,17.83-46.38,31-18.69,18.69-32.23,42.54-38.26,69.23-1.74,7.65-2.85,15.55-3.3,23.61h25.65c-.16,2.65-.23,5.32-.23,8.02,0,1.61.03,3.21.09,4.81-.04,1.07-.07,2.14-.07,3.21h-25.43c.44,8.06,1.55,15.95,3.3,23.61,9.33,41.25,36.56,75.72,73.08,94.81-3.38,1.07-6.83,2.01-10.33,2.82-38.84-18.15-68.14-53.28-78.36-95.86-1.97-8.2-3.24-16.69-3.71-25.38H.23c-.14-2.31-.21-4.64-.21-6.99-.01-.34-.01-.68-.01-1.03s0-.68.01-1.03c0-2.35.07-4.68.21-6.99h25.63c.47-8.69,1.74-17.18,3.71-25.38,6.22-25.98,19.56-49.19,37.83-67.46,15.15-15.15,33.69-26.92,54.39-34.04,4.18-1.46,8.46-2.7,12.81-3.74.36-.1.7-.19,1.06-.26,2.3-.54,4.62-1.03,6.96-1.46,4.21-.77,8.49-1.34,12.82-1.71Z"/>
        <path class="cls-2" d="m285.02,134.62h-25.63c-.47-8.69-1.74-17.18-3.71-25.38-6.22-25.98-19.56-49.19-37.83-67.46-11.68-11.68-25.38-21.36-40.53-28.42,6.06-1.43,12.27-2.45,18.6-3.07h.03c17.96,7.23,34.07,18.02,47.53,31.48,24.04,24.04,39.54,56.65,41.54,92.84Z"/>
        <path class="cls-2" d="m243.36,134.62h-25.65c-2-36.19-17.5-68.8-41.54-92.84-7.43-7.45-15.69-14.07-24.62-19.71,2.87-1.3,5.79-2.5,8.77-3.58,2.2-.83,4.42-1.58,6.68-2.3h.01c12.9,6.73,24.61,15.39,34.79,25.59,18.69,18.69,32.23,42.54,38.26,69.23,1.74,7.65,2.85,15.55,3.3,23.61Z"/>
        <path class="cls-2" d="m259.38,150.65h25.63c-2,36.19-17.5,68.79-41.54,92.84-18.22,18.22-41.33,31.51-67.2,37.76h-.01c-4.19,1.03-8.46,1.87-12.8,2.5-2.27.33-4.55.61-6.85.83-.39.04-.77.09-1.17.1-4.22.4-8.5.58-12.82.58s-8.59-.19-12.81-.58c4.34-.37,8.6-.96,12.81-1.71,2.34-.43,4.66-.91,6.96-1.46.36-.07.7-.16,1.06-.26,4.35-1.04,8.63-2.3,12.82-3.74,20.68-7.12,39.23-18.87,54.38-34.02,18.27-18.27,31.61-41.48,37.83-67.46,1.97-8.2,3.24-16.69,3.71-25.38Z"/>
        <path class="cls-2" d="m217.72,150.65h25.65c-.44,8.06-1.55,15.95-3.3,23.61-6.03,26.69-19.57,50.54-38.26,69.23-13.17,13.17-28.89,23.77-46.36,30.98-3.77,1.57-7.62,2.97-11.55,4.21-.41.13-.84.27-1.27.39-2.64.81-5.31,1.54-8.02,2.18-4.19,1.03-8.47,1.87-12.81,2.5-4.34-.63-8.62-1.47-12.82-2.5,4.37-1.04,8.63-2.3,12.82-3.74,2.71-.93,5.39-1.94,8.02-3.04,1.31-.53,2.6-1.08,3.88-1.67,3.04-1.36,6.02-2.82,8.93-4.41,12.4-6.63,23.69-15.05,33.55-24.91,24.04-24.05,39.54-56.65,41.54-92.84Z"/>
        <path class="cls-2" d="m133.69,263.19c-2.87,1.3-5.79,2.5-8.77,3.58h-.01c-2.2.83-4.39,1.58-6.65,2.3-36.52-19.09-63.75-53.55-73.08-94.81-1.74-7.66-2.85-15.55-3.3-23.61h25.65c2.61,47.39,28.37,88.6,66.16,112.54Z"/>
        <path class="cls-2" d="m107.93,271.89c-6.06,1.43-12.28,2.45-18.62,3.07C39.3,254.81,3.35,207.1.23,150.65h25.63c.47,8.69,1.74,17.18,3.71,25.38,10.21,42.58,39.51,77.72,78.36,95.86Z"/>
        <path class="cls-2" d="m163.46,1.51c4.34.63,8.6,1.47,12.8,2.5-4.35,1.04-8.62,2.3-12.8,3.74-2.71.93-5.39,1.94-8.02,3.04-1.31.53-2.61,1.08-3.89,1.67-3.04,1.37-6.02,2.82-8.93,4.41-12.4,6.63-23.69,15.06-33.55,24.92-24.04,24.04-39.54,56.65-41.54,92.84h-25.65c.44-8.06,1.55-15.96,3.3-23.61,6.03-26.69,19.57-50.54,38.26-69.23,13.17-13.17,28.89-23.78,46.38-31,3.77-1.57,7.62-2.97,11.55-4.21.41-.13.83-.27,1.26-.39,2.64-.81,5.31-1.54,8.02-2.18,4.21-1.03,8.49-1.87,12.82-2.5Z"/>
        <path class="cls-2" d="m142.62,0c4.32,0,8.6.19,12.82.58-4.34.37-8.62.94-12.82,1.71-2.34.43-4.66.91-6.96,1.46-.36.07-.7.16-1.06.26-4.35,1.04-8.63,2.28-12.81,3.74-20.7,7.12-39.24,18.89-54.39,34.04-18.27,18.27-31.61,41.48-37.83,67.46-1.97,8.2-3.24,16.69-3.71,25.38H.23c2-36.19,17.5-68.8,41.54-92.84C59.99,23.57,83.09,10.26,108.97,4.01c4.21-1.03,8.49-1.87,12.82-2.5,2.25-.33,4.52-.61,6.82-.83.4-.04.8-.09,1.2-.1,4.22-.4,8.49-.58,12.81-.58Z"/>
      </g>
      <path class="cls-3" d="m111.81,180.14c4.94,0,9.46-.79,13.54-2.37,4.08-1.57,7.56-3.92,10.42-7.04,2.87-3.12,5.09-7.02,6.66-11.71,1.57-4.69,2.36-10.16,2.36-16.39s-.79-11.7-2.36-16.39c-1.58-4.69-3.8-8.6-6.66-11.71-2.87-3.12-6.34-5.46-10.42-7.04-4.08-1.58-8.6-2.37-13.54-2.37h-23.24c-3.25,11.96-5.02,24.52-5.02,37.51s1.77,25.55,5.02,37.51h23.24Zm0-60.51c4.87,0,8.71,1.36,11.5,4.08,2.79,2.72,4.19,7.09,4.19,13.11v11.61c0,6.02-1.4,10.39-4.19,13.11-2.79,2.72-6.63,4.08-11.5,4.08h-11.93v-46h11.93Z"/>
      <path class="cls-3" d="m199.43,119.63c-.8-4.93-1.86-9.77-3.15-14.51h-39.98v75.02h16.34v-30.74h28.48v-13.8c-.01-.24-.03-.47-.04-.71h-28.44v-15.26h26.79Z"/>
    </g>
  </g>
</svg>