<?xml version="1.0" encoding="UTF-8" standalone="no"?>
<!-- Created with Inkscape (http://www.inkscape.org/) -->
<svg version="1.1" id="svg2" width="186.66666" height="186.66667" viewBox="0 0 186.66665 186.66667" sodipodi:docname="Logo markør RGB.ai" xmlns:inkscape="http://www.inkscape.org/namespaces/inkscape" xmlns:sodipodi="http://sodipodi.sourceforge.net/DTD/sodipodi-0.dtd" xmlns="http://www.w3.org/2000/svg" xmlns:svg="http://www.w3.org/2000/svg">
  <defs id="defs6">
    <clipPath clipPathUnits="userSpaceOnUse" id="clipPath20">
      <path d="M 0,140 H 140 V 0 H 0 Z" id="path18"/>
    </clipPath>
  </defs>
  <sodipodi:namedview id="namedview4" pagecolor="#505050" bordercolor="#eeeeee" borderopacity="1" inkscape:showpageshadow="0" inkscape:pageopacity="0" inkscape:pagecheckerboard="0" inkscape:deskcolor="#505050" showgrid="false"/>
  <g id="g10" inkscape:groupmode="layer" inkscape:label="Page 1" transform="matrix(1.3333333,0,0,-1.3333333,0,186.66666)">
    <path d="M 0,0 H 140 V 140 H 0 Z" style="fill:#d0004d;fill-opacity:1;fill-rule:nonzero;stroke:none" id="path12"/>
    <g id="g14">
      <g id="g16" clip-path="url(#clipPath20)">
        <g id="g22" transform="translate(97.8584,70.7412)">
          <path d="m 0,0 c 0,5.159 -1.418,10.189 -3.998,14.703 l -38.304,-39.724 c 4.256,-2.708 9.028,-4.255 14.316,-4.255 C -12.51,-29.276 0,-15.348 0,0 m -51.33,-15.735 38.434,40.239 c -4.385,2.967 -9.544,4.772 -15.09,4.772 -15.477,0 -27.987,-14.057 -27.987,-29.276 0,-5.676 1.677,-11.092 4.643,-15.735 M 18.314,0 c 0,-25.278 -20.635,-47.074 -46.3,-47.074 -10.06,0 -19.346,3.352 -26.955,8.897 l -6.578,-6.705 -9.156,8.899 6.448,6.836 c -6.319,8.125 -10.06,18.313 -10.06,29.147 0,25.278 20.636,47.074 46.301,47.074 10.317,0 19.861,-3.611 27.599,-9.414 l 7.094,7.351 9.415,-9.544 -7.094,-7.352 C 14.832,20.119 18.314,10.317 18.314,0" style="fill:#ffffff;fill-opacity:1;fill-rule:nonzero;stroke:none" id="path24"/>
        </g>
      </g>
    </g>
  </g>
</svg>