<?xml version="1.0" encoding="UTF-8" standalone="no"?>
<!-- Created with Inkscape (http://www.inkscape.org/) -->
<svg xmlns:dc="http://purl.org/dc/elements/1.1/" xmlns:cc="http://creativecommons.org/ns#" xmlns:rdf="http://www.w3.org/1999/02/22-rdf-syntax-ns#" xmlns:svg="http://www.w3.org/2000/svg" xmlns="http://www.w3.org/2000/svg" xmlns:sodipodi="http://sodipodi.sourceforge.net/DTD/sodipodi-0.dtd" xmlns:inkscape="http://www.inkscape.org/namespaces/inkscape" version="1.1" id="svg1474" xml:space="preserve" width="250" height="300" viewBox="0 0 250 299.99999" sodipodi:docname="V-venstre.svg" inkscape:version="0.92.3 (2405546, 2018-03-11)"><metadata id="metadata1480"><rdf:RDF><cc:Work rdf:about=""><dc:format>image/svg+xml</dc:format><dc:type rdf:resource="http://purl.org/dc/dcmitype/StillImage"/><dc:title/></cc:Work></rdf:RDF></metadata><defs id="defs1478"><clipPath clipPathUnits="userSpaceOnUse" id="clipPath1490"><path d="M 0,841.89 H 595.28 V 0 H 0 Z" id="path1488" inkscape:connector-curvature="0"/></clipPath></defs><sodipodi:namedview pagecolor="#ffffff" bordercolor="#666666" borderopacity="1" objecttolerance="10" gridtolerance="10" guidetolerance="10" inkscape:pageopacity="0" inkscape:pageshadow="2" inkscape:window-width="1920" inkscape:window-height="991" id="namedview1476" showgrid="false" fit-margin-top="0" fit-margin-left="0" fit-margin-right="0" fit-margin-bottom="0" inkscape:zoom="1.189304" inkscape:cx="330.20932" inkscape:cy="-6.8814164" inkscape:window-x="-10" inkscape:window-y="-10" inkscape:window-maximized="1" inkscape:current-layer="g1482"/><g id="g1482" inkscape:groupmode="layer" inkscape:label="V_logo_warm_dark_blue_4F" transform="matrix(1.3333333,0,0,-1.3333333,-867.85659,1973.1996)"><g id="g1484" transform="matrix(0.36575247,0,0,0.36575247,635.6846,1213.9821)"><g id="g1486" clip-path="url(#clipPath1490)"><g id="g1492" transform="translate(246.6602,116.999)"><path d="m 0,0 c -4.866,0 -8.109,2.822 -9.731,7.055 l -189.821,500.491 c -1.622,4.938 -2.232,10.044 3.697,15.76 l 80.448,77.987 c 5.919,6.035 12.719,3.748 14.92,-1.14 2.202,-4.887 156.624,-442.12 156.624,-442.12 h 2.432 l 116.289,313.778 c 1.622,4.938 4.867,7.055 10.542,7.055 h 110.024 c 5.678,0 8.92,-2.823 7.3,-7.762 L 121.561,7.055 C 119.938,2.822 116.694,0 111.019,0 Z" style="fill:#002883;fill-opacity:1;fill-rule:nonzero;stroke:none" id="path1494" inkscape:connector-curvature="0"/></g></g></g></g></svg>